<?xml version="1.0" encoding="utf-8"?>
<!-- Generator: Adobe Illustrator 25.2.3, SVG Export Plug-In . SVG Version: 6.00 Build 0)  -->
<svg version="1.1" id="Calque_1" xmlns="http://www.w3.org/2000/svg" xmlns:xlink="http://www.w3.org/1999/xlink" x="0px" y="0px"
	 viewBox="0 0 304 94" style="enable-background:new 0 0 304 94;" xml:space="preserve">
<style type="text/css">
	.st0{fill-rule:evenodd;clip-rule:evenodd;fill:#077AFF;}
	.st1{fill:#121C42;}
</style>
<path class="st0" d="M48.5,39.2c0-1.2,0.4-2.4,1-3.3c-0.9-0.2-1.8-0.3-2.8-0.3c-6.3,0-11.5,5.1-11.5,11.5s5.1,11.5,11.5,11.5
	c3.2,0,6-1.3,8.1-3.4c2.1-2.1,3.3-4.9,3.3-8.1c0-1-0.1-2.1-0.4-3c-1,0.7-2.2,1.1-3.5,1.1c-1.6,0-3-0.6-4.1-1.6
	C49.2,42.4,48.5,40.9,48.5,39.2z M26.7,75.4 M46.7,70.4c-4.4,0-8.5-1.2-12-3.3l-8.1,8.3c-2.3,2.3-6,2.4-8.3,0.1
	c-2.3-2.3-2.4-6-0.1-8.3l8.2-8.4c-2-3.5-3.2-7.5-3.2-11.8c0-12.9,10.5-23.4,23.4-23.4c6.5,0,12.4,2.6,16.6,6.9l16.1-16
	C71.1,6.1,59.5,0.9,46.7,0.9C21.3,0.9,0.6,21.5,0.6,47c0,25.5,20.7,46.1,46.1,46.1c12.8,0,24.3-5.2,32.6-13.5l-16-16
	C59.1,67.8,53.2,70.4,46.7,70.4z"/>
<g>
	<path class="st1" d="M140.1,36.9h-11.9c-1.4-1.9-3.1-3.3-5-4.3s-4.2-1.4-6.6-1.4c-2,0-3.9,0.4-5.7,1.1c-1.8,0.8-3.4,1.8-4.8,3.3
		c-1.5,1.5-2.6,3.2-3.4,5.2c-0.8,2-1.2,4-1.2,6.1c0,4.6,1.5,8.4,4.4,11.5c2.9,3.1,6.5,4.6,10.7,4.6c2.4,0,4.6-0.5,6.6-1.4
		c1.9-0.9,3.5-2.2,4.7-4h11.9c-2.3,5.1-5.4,8.9-9.3,11.5c-3.9,2.6-8.5,3.8-13.9,3.8c-3.7,0-7.2-0.7-10.3-2.2c-3.2-1.4-6-3.6-8.5-6.4
		c-2.1-2.3-3.7-5-4.8-8s-1.6-6.2-1.6-9.6c0-3.5,0.7-6.8,2-9.9c1.3-3.1,3.3-5.9,5.8-8.5c2.4-2.4,5.1-4.2,8-5.4c3-1.2,6.1-1.8,9.5-1.8
		c5.4,0,10.1,1.3,14,3.9C134.5,27.6,137.6,31.6,140.1,36.9z"/>
	<path class="st1" d="M170.9,71.9v-4.1c-1.3,1.7-2.7,3-4.4,3.8c-1.7,0.8-3.5,1.2-5.7,1.2c-4.7,0-8.3-1.4-10.9-4.3
		c-2.5-2.9-3.8-7.1-3.8-12.5V34.3h8.9v16.9c0,5.1,0.6,8.6,1.7,10.4c1.2,1.9,3.2,2.8,6,2.8c2.9,0,5-1,6.3-3.1
		c1.3-2.1,1.9-5.7,1.9-10.7V34.3h8.6v37.6H170.9z"/>
	<path class="st1" d="M205.6,41.9c-3.4,0.3-5.8,1.2-7.1,2.7c-1.3,1.5-2,4.2-2,8.1v19.2h-8.8V34.3h8.2v4.3c1.3-1.7,2.8-2.9,4.3-3.7
		c1.6-0.8,3.3-1.2,5.3-1.2V41.9z"/>
	<path class="st1" d="M215.6,59.4v0.5c0,1.7,0.4,3,1.3,4.1c0.8,1,1.9,1.6,3.3,1.6c1.3,0,2.3-0.4,3.1-1.2c0.8-0.8,1.2-1.8,1.2-3
		c0-1.1-0.3-2-0.9-2.8c-0.6-0.7-1.7-1.4-3.2-2.2c-0.9-0.4-2.1-0.9-3.8-1.6c-1.7-0.7-2.8-1.2-3.2-1.6c-1.4-1.1-2.4-2.4-3.1-3.8
		c-0.7-1.4-1-3-1-4.8c0-3.2,1.1-5.8,3.3-8s4.9-3.3,8.1-3.3c3.3,0,6,1,7.9,2.9c1.9,1.9,3,4.6,3.2,8.1H224v-0.2c0-1.2-0.3-2.2-0.9-2.8
		s-1.5-1-2.6-1c-1,0-1.8,0.3-2.4,1c-0.6,0.7-1,1.5-1,2.5c0,1.6,1.7,3.2,5.1,4.6c0.9,0.4,1.6,0.6,2.1,0.9c3.2,1.5,5.4,3,6.6,4.7
		c1.2,1.7,1.8,3.9,1.8,6.8c0,3.5-1.2,6.4-3.6,8.7c-2.4,2.3-5.4,3.4-9,3.4c-3.6,0-6.5-1.2-8.8-3.6c-2.2-2.4-3.4-5.7-3.6-9.8
		L215.6,59.4z"/>
	<path class="st1" d="M263.6,71.9v-4.1c-1.3,1.7-2.7,3-4.4,3.8c-1.7,0.8-3.5,1.2-5.7,1.2c-4.7,0-8.3-1.4-10.9-4.3
		c-2.5-2.9-3.8-7.1-3.8-12.5V34.3h8.9v16.9c0,5.1,0.6,8.6,1.7,10.4c1.2,1.9,3.2,2.8,6,2.8c2.9,0,5-1,6.3-3.1
		c1.3-2.1,1.9-5.7,1.9-10.7V34.3h8.6v37.6H263.6z"/>
	<path class="st1" d="M286.5,59.4v0.5c0,1.7,0.4,3,1.3,4.1s1.9,1.6,3.3,1.6c1.3,0,2.3-0.4,3.1-1.2c0.8-0.8,1.2-1.8,1.2-3
		c0-1.1-0.3-2-0.9-2.8c-0.6-0.7-1.7-1.4-3.2-2.2c-0.9-0.4-2.1-0.9-3.8-1.6s-2.8-1.2-3.2-1.6c-1.4-1.1-2.4-2.4-3.1-3.8
		c-0.7-1.4-1-3-1-4.8c0-3.2,1.1-5.8,3.3-8c2.2-2.2,4.9-3.3,8.1-3.3c3.3,0,6,1,7.9,2.9c1.9,1.9,3,4.6,3.2,8.1h-7.9v-0.2
		c0-1.2-0.3-2.2-0.9-2.8s-1.5-1-2.6-1c-1,0-1.8,0.3-2.4,1c-0.7,0.7-1,1.5-1,2.5c0,1.6,1.7,3.2,5.1,4.6c0.9,0.4,1.6,0.6,2.1,0.9
		c3.2,1.5,5.4,3,6.6,4.7c1.2,1.7,1.8,3.9,1.8,6.8c0,3.5-1.2,6.4-3.6,8.7c-2.4,2.3-5.4,3.4-9,3.4c-3.6,0-6.5-1.2-8.8-3.6
		c-2.2-2.4-3.4-5.7-3.6-9.8L286.5,59.4z"/>
</g>
</svg>
