<?xml version="1.0" encoding="utf-8"?>
<!-- Generator: Adobe Illustrator 25.2.3, SVG Export Plug-In . SVG Version: 6.00 Build 0)  -->
<svg version="1.1" id="Calque_1" xmlns="http://www.w3.org/2000/svg" xmlns:xlink="http://www.w3.org/1999/xlink" x="0px" y="0px"
	 viewBox="0 0 99 99" style="enable-background:new 0 0 99 99;" xml:space="preserve">
<style type="text/css">
	.st0{fill-rule:evenodd;clip-rule:evenodd;fill:#077AFF;}
</style>
<path class="st0" d="M57.9,41.7c0-1.2,0.4-2.4,1-3.3c-0.9-0.2-1.8-0.3-2.8-0.3c-6.3,0-11.5,5.1-11.5,11.5S49.9,61,56.2,61
	c3.2,0,6-1.3,8.1-3.4c2.1-2.1,3.3-4.9,3.3-8.1c0-1-0.1-2.1-0.4-3c-1,0.7-2.2,1.1-3.5,1.1c-1.6,0-3-0.6-4.1-1.6
	C58.6,44.9,57.9,43.4,57.9,41.7z M36.2,77.9 M56.2,72.9c-4.4,0-8.5-1.2-12-3.3l-8.1,8.3c-2.3,2.3-6,2.4-8.3,0.1
	c-2.3-2.3-2.4-6-0.1-8.3l8.2-8.4c-2-3.5-3.2-7.5-3.2-11.8c0-12.9,10.5-23.4,23.4-23.4c6.5,0,12.4,2.6,16.6,6.9l16.1-16
	C80.6,8.6,69,3.4,56.2,3.4C30.7,3.4,10.1,24,10.1,49.5c0,25.5,20.7,46.1,46.1,46.1c12.8,0,24.3-5.2,32.6-13.5l-16-16
	C68.5,70.3,62.7,72.9,56.2,72.9z"/>
</svg>
